<mxfile host="Electron" modified="2024-01-10T15:33:07.674Z" agent="Mozilla/5.0 (Windows NT 10.0; Win64; x64) AppleWebKit/537.36 (KHTML, like Gecko) draw.io/22.0.2 Chrome/114.0.5735.289 Electron/25.8.4 Safari/537.36" etag="neSiQnEwXipdnfMFIN_d" version="22.0.2" type="device">
  <diagram name="Page-1" id="z3kwIi44Q01-h5LEooEN">
    <mxGraphModel dx="3781" dy="2162" grid="1" gridSize="10" guides="1" tooltips="1" connect="1" arrows="1" fold="1" page="1" pageScale="1" pageWidth="850" pageHeight="1100" math="0" shadow="0">
      <root>
        <mxCell id="0" />
        <mxCell id="1" parent="0" />
        <mxCell id="9BV4CZnHF9neYJMWB2M7-3" value="" style="rounded=0;whiteSpace=wrap;html=1;align=left;verticalAlign=top;glass=0;shadow=1;fillColor=#f5f5f5;fontColor=#333333;strokeColor=#666666;" parent="1" vertex="1">
          <mxGeometry x="-860" y="80" width="980" height="520" as="geometry" />
        </mxCell>
        <mxCell id="-FT3mpPr_WbykKQzSYBq-54" value="" style="rounded=0;whiteSpace=wrap;html=1;fillColor=#bac8d3;strokeColor=#23445d;" parent="1" vertex="1">
          <mxGeometry x="-860" y="80" width="980" height="180" as="geometry" />
        </mxCell>
        <mxCell id="-FT3mpPr_WbykKQzSYBq-51" value="" style="rounded=1;whiteSpace=wrap;html=1;fillColor=#d5e8d4;strokeColor=#82b366;" parent="1" vertex="1">
          <mxGeometry x="-390" y="-330" width="470" height="270" as="geometry" />
        </mxCell>
        <mxCell id="9BV4CZnHF9neYJMWB2M7-11" value="" style="rounded=1;whiteSpace=wrap;html=1;fillColor=#e1d5e7;strokeColor=#9673a6;" parent="1" vertex="1">
          <mxGeometry x="-810" y="130" width="880" height="100" as="geometry" />
        </mxCell>
        <mxCell id="-FT3mpPr_WbykKQzSYBq-16" style="edgeStyle=orthogonalEdgeStyle;rounded=0;orthogonalLoop=1;jettySize=auto;html=1;exitX=1;exitY=0.5;exitDx=0;exitDy=0;entryX=0;entryY=0.5;entryDx=0;entryDy=0;strokeWidth=2;strokeColor=#6383B0;" parent="1" source="-FT3mpPr_WbykKQzSYBq-2" target="-FT3mpPr_WbykKQzSYBq-14" edge="1">
          <mxGeometry relative="1" as="geometry">
            <Array as="points">
              <mxPoint x="-590" y="180" />
              <mxPoint x="-590" />
              <mxPoint x="-430" />
              <mxPoint x="-430" y="-125" />
            </Array>
          </mxGeometry>
        </mxCell>
        <mxCell id="-FT3mpPr_WbykKQzSYBq-25" style="edgeStyle=orthogonalEdgeStyle;rounded=0;orthogonalLoop=1;jettySize=auto;html=1;exitX=0;exitY=0.5;exitDx=0;exitDy=0;entryX=0;entryY=0.5;entryDx=0;entryDy=0;strokeWidth=2;strokeColor=#B812FF;" parent="1" source="-FT3mpPr_WbykKQzSYBq-2" target="-FT3mpPr_WbykKQzSYBq-19" edge="1">
          <mxGeometry relative="1" as="geometry">
            <Array as="points">
              <mxPoint x="-720" y="180" />
              <mxPoint x="-720" y="-20" />
              <mxPoint x="-450" y="-20" />
              <mxPoint x="-450" y="-155" />
            </Array>
          </mxGeometry>
        </mxCell>
        <mxCell id="-FT3mpPr_WbykKQzSYBq-46" style="edgeStyle=orthogonalEdgeStyle;rounded=0;orthogonalLoop=1;jettySize=auto;html=1;exitX=1;exitY=0.5;exitDx=0;exitDy=0;entryX=0;entryY=0.5;entryDx=0;entryDy=0;" parent="1" source="-FT3mpPr_WbykKQzSYBq-2" target="-FT3mpPr_WbykKQzSYBq-30" edge="1">
          <mxGeometry relative="1" as="geometry" />
        </mxCell>
        <mxCell id="ffz6APYkUqv7V9TVB2FK-10" style="edgeStyle=orthogonalEdgeStyle;rounded=0;orthogonalLoop=1;jettySize=auto;html=1;exitX=0.25;exitY=1;exitDx=0;exitDy=0;entryX=0.5;entryY=0;entryDx=0;entryDy=0;" edge="1" parent="1" source="-FT3mpPr_WbykKQzSYBq-2" target="ffz6APYkUqv7V9TVB2FK-1">
          <mxGeometry relative="1" as="geometry">
            <Array as="points">
              <mxPoint x="-700" y="210" />
              <mxPoint x="-700" y="290" />
              <mxPoint x="-780" y="290" />
            </Array>
          </mxGeometry>
        </mxCell>
        <mxCell id="-FT3mpPr_WbykKQzSYBq-2" value="&lt;b&gt;Activity&lt;/b&gt;" style="shape=parallelogram;perimeter=parallelogramPerimeter;whiteSpace=wrap;html=1;fixedSize=1;fillColor=#fff2cc;strokeColor=#d6b656;" parent="1" vertex="1">
          <mxGeometry x="-720" y="150" width="120" height="60" as="geometry" />
        </mxCell>
        <mxCell id="-FT3mpPr_WbykKQzSYBq-17" style="edgeStyle=orthogonalEdgeStyle;rounded=0;orthogonalLoop=1;jettySize=auto;html=1;exitX=1;exitY=0.5;exitDx=0;exitDy=0;entryX=0;entryY=0.5;entryDx=0;entryDy=0;strokeWidth=2;strokeColor=#6383B0;" parent="1" source="-FT3mpPr_WbykKQzSYBq-3" target="-FT3mpPr_WbykKQzSYBq-14" edge="1">
          <mxGeometry relative="1" as="geometry">
            <Array as="points">
              <mxPoint x="-390" y="180" />
              <mxPoint x="-390" />
              <mxPoint x="-430" />
              <mxPoint x="-430" y="-125" />
            </Array>
          </mxGeometry>
        </mxCell>
        <mxCell id="-FT3mpPr_WbykKQzSYBq-33" style="edgeStyle=orthogonalEdgeStyle;rounded=0;orthogonalLoop=1;jettySize=auto;html=1;exitX=0;exitY=0.5;exitDx=0;exitDy=0;entryX=0;entryY=0.5;entryDx=0;entryDy=0;strokeWidth=2;strokeColor=#B812FF;" parent="1" source="-FT3mpPr_WbykKQzSYBq-3" target="-FT3mpPr_WbykKQzSYBq-19" edge="1">
          <mxGeometry relative="1" as="geometry">
            <Array as="points">
              <mxPoint x="-520" y="180" />
              <mxPoint x="-520" y="-20" />
              <mxPoint x="-450" y="-20" />
              <mxPoint x="-450" y="-155" />
            </Array>
          </mxGeometry>
        </mxCell>
        <mxCell id="-FT3mpPr_WbykKQzSYBq-47" style="edgeStyle=orthogonalEdgeStyle;rounded=0;orthogonalLoop=1;jettySize=auto;html=1;exitX=1;exitY=0.5;exitDx=0;exitDy=0;entryX=0;entryY=0.5;entryDx=0;entryDy=0;" parent="1" source="-FT3mpPr_WbykKQzSYBq-3" target="-FT3mpPr_WbykKQzSYBq-31" edge="1">
          <mxGeometry relative="1" as="geometry" />
        </mxCell>
        <mxCell id="ffz6APYkUqv7V9TVB2FK-18" style="edgeStyle=orthogonalEdgeStyle;rounded=0;orthogonalLoop=1;jettySize=auto;html=1;exitX=0.25;exitY=1;exitDx=0;exitDy=0;entryX=0.25;entryY=0;entryDx=0;entryDy=0;" edge="1" parent="1" source="-FT3mpPr_WbykKQzSYBq-3" target="ffz6APYkUqv7V9TVB2FK-5">
          <mxGeometry relative="1" as="geometry">
            <Array as="points">
              <mxPoint x="-490" y="300" />
              <mxPoint x="-460" y="300" />
            </Array>
          </mxGeometry>
        </mxCell>
        <mxCell id="-FT3mpPr_WbykKQzSYBq-3" value="&lt;b&gt;Activity&lt;/b&gt;" style="shape=parallelogram;perimeter=parallelogramPerimeter;whiteSpace=wrap;html=1;fixedSize=1;fillColor=#fff2cc;strokeColor=#d6b656;" parent="1" vertex="1">
          <mxGeometry x="-520" y="150" width="120" height="60" as="geometry" />
        </mxCell>
        <mxCell id="-FT3mpPr_WbykKQzSYBq-27" style="edgeStyle=orthogonalEdgeStyle;rounded=0;orthogonalLoop=1;jettySize=auto;html=1;exitX=1;exitY=0.5;exitDx=0;exitDy=0;entryX=0;entryY=0.5;entryDx=0;entryDy=0;strokeWidth=2;strokeColor=#6383B0;" parent="1" source="-FT3mpPr_WbykKQzSYBq-4" target="-FT3mpPr_WbykKQzSYBq-14" edge="1">
          <mxGeometry relative="1" as="geometry">
            <Array as="points">
              <mxPoint x="-190" y="180" />
              <mxPoint x="-190" />
              <mxPoint x="-430" />
              <mxPoint x="-430" y="-125" />
            </Array>
          </mxGeometry>
        </mxCell>
        <mxCell id="-FT3mpPr_WbykKQzSYBq-34" style="edgeStyle=orthogonalEdgeStyle;rounded=0;orthogonalLoop=1;jettySize=auto;html=1;exitX=0;exitY=0.5;exitDx=0;exitDy=0;entryX=0;entryY=0.5;entryDx=0;entryDy=0;strokeWidth=2;strokeColor=#B812FF;" parent="1" source="-FT3mpPr_WbykKQzSYBq-4" target="-FT3mpPr_WbykKQzSYBq-19" edge="1">
          <mxGeometry relative="1" as="geometry">
            <Array as="points">
              <mxPoint x="-320" y="180" />
              <mxPoint x="-320" y="-20" />
              <mxPoint x="-450" y="-20" />
              <mxPoint x="-450" y="-155" />
            </Array>
          </mxGeometry>
        </mxCell>
        <mxCell id="-FT3mpPr_WbykKQzSYBq-48" style="edgeStyle=orthogonalEdgeStyle;rounded=0;orthogonalLoop=1;jettySize=auto;html=1;exitX=1;exitY=0.5;exitDx=0;exitDy=0;entryX=0;entryY=0.5;entryDx=0;entryDy=0;" parent="1" source="-FT3mpPr_WbykKQzSYBq-4" target="-FT3mpPr_WbykKQzSYBq-32" edge="1">
          <mxGeometry relative="1" as="geometry" />
        </mxCell>
        <mxCell id="ffz6APYkUqv7V9TVB2FK-27" style="edgeStyle=orthogonalEdgeStyle;rounded=0;orthogonalLoop=1;jettySize=auto;html=1;exitX=0.25;exitY=1;exitDx=0;exitDy=0;entryX=0.25;entryY=0;entryDx=0;entryDy=0;" edge="1" parent="1" source="-FT3mpPr_WbykKQzSYBq-4" target="ffz6APYkUqv7V9TVB2FK-8">
          <mxGeometry relative="1" as="geometry" />
        </mxCell>
        <mxCell id="-FT3mpPr_WbykKQzSYBq-4" value="&lt;b&gt;Activity&lt;/b&gt;" style="shape=parallelogram;perimeter=parallelogramPerimeter;whiteSpace=wrap;html=1;fixedSize=1;fillColor=#fff2cc;strokeColor=#d6b656;" parent="1" vertex="1">
          <mxGeometry x="-320" y="150" width="120" height="60" as="geometry" />
        </mxCell>
        <mxCell id="-FT3mpPr_WbykKQzSYBq-18" style="edgeStyle=orthogonalEdgeStyle;rounded=0;orthogonalLoop=1;jettySize=auto;html=1;exitX=1;exitY=0.5;exitDx=0;exitDy=0;entryX=0;entryY=0.5;entryDx=0;entryDy=0;fillColor=#dae8fc;strokeColor=#6383B0;strokeWidth=2;" parent="1" source="-FT3mpPr_WbykKQzSYBq-5" target="-FT3mpPr_WbykKQzSYBq-14" edge="1">
          <mxGeometry relative="1" as="geometry">
            <Array as="points">
              <mxPoint x="10" y="180" />
              <mxPoint x="10" />
              <mxPoint x="-430" />
              <mxPoint x="-430" y="-125" />
            </Array>
          </mxGeometry>
        </mxCell>
        <mxCell id="-FT3mpPr_WbykKQzSYBq-35" style="edgeStyle=orthogonalEdgeStyle;rounded=0;orthogonalLoop=1;jettySize=auto;html=1;exitX=0;exitY=0.5;exitDx=0;exitDy=0;entryX=0;entryY=0.5;entryDx=0;entryDy=0;strokeWidth=2;strokeColor=#B812FF;" parent="1" source="-FT3mpPr_WbykKQzSYBq-5" target="-FT3mpPr_WbykKQzSYBq-19" edge="1">
          <mxGeometry relative="1" as="geometry">
            <Array as="points">
              <mxPoint x="-120" y="180" />
              <mxPoint x="-120" y="-20" />
              <mxPoint x="-450" y="-20" />
              <mxPoint x="-450" y="-155" />
            </Array>
          </mxGeometry>
        </mxCell>
        <mxCell id="-FT3mpPr_WbykKQzSYBq-49" style="edgeStyle=orthogonalEdgeStyle;rounded=0;orthogonalLoop=1;jettySize=auto;html=1;exitX=1;exitY=0.5;exitDx=0;exitDy=0;entryX=0;entryY=0.5;entryDx=0;entryDy=0;" parent="1" source="-FT3mpPr_WbykKQzSYBq-5" target="-FT3mpPr_WbykKQzSYBq-42" edge="1">
          <mxGeometry relative="1" as="geometry" />
        </mxCell>
        <mxCell id="ffz6APYkUqv7V9TVB2FK-30" style="edgeStyle=orthogonalEdgeStyle;rounded=0;orthogonalLoop=1;jettySize=auto;html=1;exitX=0.25;exitY=1;exitDx=0;exitDy=0;entryX=0.25;entryY=0;entryDx=0;entryDy=0;" edge="1" parent="1" source="-FT3mpPr_WbykKQzSYBq-5" target="ffz6APYkUqv7V9TVB2FK-7">
          <mxGeometry relative="1" as="geometry" />
        </mxCell>
        <mxCell id="-FT3mpPr_WbykKQzSYBq-5" value="&lt;b&gt;Activity&lt;/b&gt;" style="shape=parallelogram;perimeter=parallelogramPerimeter;whiteSpace=wrap;html=1;fixedSize=1;fillColor=#fff2cc;strokeColor=#d6b656;" parent="1" vertex="1">
          <mxGeometry x="-120" y="150" width="120" height="60" as="geometry" />
        </mxCell>
        <mxCell id="-FT3mpPr_WbykKQzSYBq-6" value="Temporal layer" style="text;html=1;strokeColor=none;fillColor=none;align=left;verticalAlign=middle;whiteSpace=wrap;rounded=0;fontSize=17;fontStyle=1" parent="1" vertex="1">
          <mxGeometry x="-720" y="80" width="180" height="30" as="geometry" />
        </mxCell>
        <mxCell id="-FT3mpPr_WbykKQzSYBq-14" value="Activity Completed" style="rounded=0;whiteSpace=wrap;html=1;" parent="1" vertex="1">
          <mxGeometry x="-360" y="-140" width="160" height="30" as="geometry" />
        </mxCell>
        <mxCell id="-FT3mpPr_WbykKQzSYBq-19" value="ActivityTaskStarted" style="rounded=0;whiteSpace=wrap;html=1;" parent="1" vertex="1">
          <mxGeometry x="-360" y="-170" width="160" height="30" as="geometry" />
        </mxCell>
        <mxCell id="-FT3mpPr_WbykKQzSYBq-23" style="edgeStyle=orthogonalEdgeStyle;rounded=0;orthogonalLoop=1;jettySize=auto;html=1;exitX=1;exitY=0.5;exitDx=0;exitDy=0;entryX=0;entryY=0.5;entryDx=0;entryDy=0;" parent="1" target="-FT3mpPr_WbykKQzSYBq-21" edge="1">
          <mxGeometry relative="1" as="geometry">
            <mxPoint x="-200" y="-155" as="sourcePoint" />
          </mxGeometry>
        </mxCell>
        <mxCell id="-FT3mpPr_WbykKQzSYBq-24" style="edgeStyle=orthogonalEdgeStyle;rounded=0;orthogonalLoop=1;jettySize=auto;html=1;exitX=1;exitY=0.5;exitDx=0;exitDy=0;entryX=1;entryY=0.5;entryDx=0;entryDy=0;" parent="1" source="-FT3mpPr_WbykKQzSYBq-21" target="-FT3mpPr_WbykKQzSYBq-22" edge="1">
          <mxGeometry relative="1" as="geometry" />
        </mxCell>
        <mxCell id="-FT3mpPr_WbykKQzSYBq-21" value="&lt;div style=&quot;text-align: left;&quot;&gt;&lt;span style=&quot;background-color: initial;&quot;&gt;Guards&lt;/span&gt;&lt;/div&gt;&lt;div style=&quot;text-align: left;&quot;&gt;&lt;span style=&quot;background-color: initial;&quot;&gt;- timeout&lt;/span&gt;&lt;/div&gt;&lt;div style=&quot;text-align: left;&quot;&gt;&lt;span style=&quot;background-color: initial;&quot;&gt;- etc&lt;/span&gt;&lt;/div&gt;" style="shape=step;perimeter=stepPerimeter;whiteSpace=wrap;html=1;fixedSize=1;" parent="1" vertex="1">
          <mxGeometry x="-120" y="-195" width="120" height="80" as="geometry" />
        </mxCell>
        <mxCell id="-FT3mpPr_WbykKQzSYBq-22" value="ActivityTaskScheduled" style="rounded=0;whiteSpace=wrap;html=1;" parent="1" vertex="1">
          <mxGeometry x="-360" y="-200" width="160" height="30" as="geometry" />
        </mxCell>
        <mxCell id="-FT3mpPr_WbykKQzSYBq-29" style="edgeStyle=orthogonalEdgeStyle;rounded=0;orthogonalLoop=1;jettySize=auto;html=1;exitX=0.5;exitY=0;exitDx=0;exitDy=0;entryX=0;entryY=0.5;entryDx=0;entryDy=0;fillColor=#a20025;strokeColor=#6F0000;strokeWidth=2;" parent="1" source="-FT3mpPr_WbykKQzSYBq-28" target="-FT3mpPr_WbykKQzSYBq-22" edge="1">
          <mxGeometry relative="1" as="geometry" />
        </mxCell>
        <mxCell id="-FT3mpPr_WbykKQzSYBq-28" value="" style="ellipse;whiteSpace=wrap;html=1;aspect=fixed;fillColor=#e1d5e7;strokeColor=#9673a6;strokeWidth=5;" parent="1" vertex="1">
          <mxGeometry x="-765" y="165" width="30" height="30" as="geometry" />
        </mxCell>
        <mxCell id="-FT3mpPr_WbykKQzSYBq-36" style="edgeStyle=orthogonalEdgeStyle;rounded=0;orthogonalLoop=1;jettySize=auto;html=1;exitX=0.5;exitY=0;exitDx=0;exitDy=0;entryX=0;entryY=0.5;entryDx=0;entryDy=0;fillColor=#a20025;strokeColor=#6F0000;strokeWidth=2;" parent="1" source="-FT3mpPr_WbykKQzSYBq-30" target="-FT3mpPr_WbykKQzSYBq-22" edge="1">
          <mxGeometry relative="1" as="geometry">
            <Array as="points">
              <mxPoint x="-555" y="-50" />
              <mxPoint x="-750" y="-50" />
              <mxPoint x="-750" y="-185" />
            </Array>
          </mxGeometry>
        </mxCell>
        <mxCell id="-FT3mpPr_WbykKQzSYBq-30" value="" style="ellipse;whiteSpace=wrap;html=1;aspect=fixed;strokeWidth=5;fillColor=#e1d5e7;strokeColor=#9673a6;" parent="1" vertex="1">
          <mxGeometry x="-570" y="165" width="30" height="30" as="geometry" />
        </mxCell>
        <mxCell id="-FT3mpPr_WbykKQzSYBq-37" style="edgeStyle=orthogonalEdgeStyle;rounded=0;orthogonalLoop=1;jettySize=auto;html=1;exitX=0.5;exitY=0;exitDx=0;exitDy=0;entryX=0;entryY=0.5;entryDx=0;entryDy=0;fillColor=#a20025;strokeColor=#6F0000;strokeWidth=2;" parent="1" source="-FT3mpPr_WbykKQzSYBq-31" target="-FT3mpPr_WbykKQzSYBq-22" edge="1">
          <mxGeometry relative="1" as="geometry">
            <Array as="points">
              <mxPoint x="-355" y="-50" />
              <mxPoint x="-750" y="-50" />
              <mxPoint x="-750" y="-185" />
            </Array>
          </mxGeometry>
        </mxCell>
        <mxCell id="-FT3mpPr_WbykKQzSYBq-31" value="" style="ellipse;whiteSpace=wrap;html=1;aspect=fixed;strokeWidth=5;fillColor=#e1d5e7;strokeColor=#9673a6;" parent="1" vertex="1">
          <mxGeometry x="-370" y="165" width="30" height="30" as="geometry" />
        </mxCell>
        <mxCell id="-FT3mpPr_WbykKQzSYBq-38" style="edgeStyle=orthogonalEdgeStyle;rounded=0;orthogonalLoop=1;jettySize=auto;html=1;exitX=0.5;exitY=0;exitDx=0;exitDy=0;entryX=0;entryY=0.5;entryDx=0;entryDy=0;fillColor=#a20025;strokeColor=#6F0000;strokeWidth=2;" parent="1" source="-FT3mpPr_WbykKQzSYBq-32" target="-FT3mpPr_WbykKQzSYBq-22" edge="1">
          <mxGeometry relative="1" as="geometry">
            <Array as="points">
              <mxPoint x="-155" y="-50" />
              <mxPoint x="-750" y="-50" />
              <mxPoint x="-750" y="-185" />
            </Array>
          </mxGeometry>
        </mxCell>
        <mxCell id="-FT3mpPr_WbykKQzSYBq-32" value="" style="ellipse;whiteSpace=wrap;html=1;aspect=fixed;fillColor=#e1d5e7;strokeColor=#9673a6;strokeWidth=5;" parent="1" vertex="1">
          <mxGeometry x="-170" y="165" width="30" height="30" as="geometry" />
        </mxCell>
        <mxCell id="-FT3mpPr_WbykKQzSYBq-39" value="WorkflowExecutionStarted" style="rounded=0;whiteSpace=wrap;html=1;" parent="1" vertex="1">
          <mxGeometry x="-360" y="-290" width="160" height="30" as="geometry" />
        </mxCell>
        <mxCell id="-FT3mpPr_WbykKQzSYBq-40" value="WorkflowExecutionCompleted" style="rounded=0;whiteSpace=wrap;html=1;" parent="1" vertex="1">
          <mxGeometry x="-360" y="-260" width="160" height="30" as="geometry" />
        </mxCell>
        <mxCell id="-FT3mpPr_WbykKQzSYBq-45" style="edgeStyle=orthogonalEdgeStyle;rounded=0;orthogonalLoop=1;jettySize=auto;html=1;exitX=0.5;exitY=0;exitDx=0;exitDy=0;entryX=1;entryY=0.5;entryDx=0;entryDy=0;fillColor=#d5e8d4;strokeColor=#82b366;strokeWidth=3;" parent="1" source="-FT3mpPr_WbykKQzSYBq-42" target="-FT3mpPr_WbykKQzSYBq-40" edge="1">
          <mxGeometry relative="1" as="geometry" />
        </mxCell>
        <mxCell id="-FT3mpPr_WbykKQzSYBq-42" value="" style="ellipse;whiteSpace=wrap;html=1;" parent="1" vertex="1">
          <mxGeometry x="20" y="175" width="30" height="10" as="geometry" />
        </mxCell>
        <mxCell id="-FT3mpPr_WbykKQzSYBq-44" style="edgeStyle=orthogonalEdgeStyle;rounded=0;orthogonalLoop=1;jettySize=auto;html=1;exitX=0.5;exitY=0;exitDx=0;exitDy=0;entryX=0;entryY=0.5;entryDx=0;entryDy=0;fillColor=#d5e8d4;strokeColor=#82b366;strokeWidth=3;" parent="1" source="-FT3mpPr_WbykKQzSYBq-43" target="-FT3mpPr_WbykKQzSYBq-39" edge="1">
          <mxGeometry relative="1" as="geometry">
            <Array as="points">
              <mxPoint x="-787" y="-275" />
            </Array>
          </mxGeometry>
        </mxCell>
        <mxCell id="-FT3mpPr_WbykKQzSYBq-43" value="" style="ellipse;whiteSpace=wrap;html=1;" parent="1" vertex="1">
          <mxGeometry x="-802" y="175" width="30" height="10" as="geometry" />
        </mxCell>
        <mxCell id="-FT3mpPr_WbykKQzSYBq-52" value="Temporal Cluster" style="text;html=1;strokeColor=none;fillColor=none;align=left;verticalAlign=middle;whiteSpace=wrap;rounded=0;fontSize=17;fontStyle=1" parent="1" vertex="1">
          <mxGeometry x="-390" y="-370" width="180" height="30" as="geometry" />
        </mxCell>
        <mxCell id="ffz6APYkUqv7V9TVB2FK-11" style="edgeStyle=orthogonalEdgeStyle;rounded=0;orthogonalLoop=1;jettySize=auto;html=1;exitX=0.25;exitY=1;exitDx=0;exitDy=0;entryX=0.25;entryY=0;entryDx=0;entryDy=0;" edge="1" parent="1" source="ffz6APYkUqv7V9TVB2FK-1" target="ffz6APYkUqv7V9TVB2FK-3">
          <mxGeometry relative="1" as="geometry" />
        </mxCell>
        <mxCell id="ffz6APYkUqv7V9TVB2FK-29" style="edgeStyle=orthogonalEdgeStyle;rounded=0;orthogonalLoop=1;jettySize=auto;html=1;exitX=0.75;exitY=1;exitDx=0;exitDy=0;entryX=0.75;entryY=1;entryDx=0;entryDy=0;" edge="1" parent="1" source="ffz6APYkUqv7V9TVB2FK-1" target="-FT3mpPr_WbykKQzSYBq-2">
          <mxGeometry relative="1" as="geometry">
            <Array as="points">
              <mxPoint x="-750" y="390" />
              <mxPoint x="-530" y="390" />
              <mxPoint x="-530" y="270" />
              <mxPoint x="-630" y="270" />
            </Array>
          </mxGeometry>
        </mxCell>
        <mxCell id="ffz6APYkUqv7V9TVB2FK-1" value="ValidatieService" style="shape=process;whiteSpace=wrap;html=1;backgroundOutline=1;fillColor=#dae8fc;strokeColor=#6c8ebf;" vertex="1" parent="1">
          <mxGeometry x="-840" y="316" width="120" height="60" as="geometry" />
        </mxCell>
        <mxCell id="ffz6APYkUqv7V9TVB2FK-16" style="edgeStyle=orthogonalEdgeStyle;rounded=0;orthogonalLoop=1;jettySize=auto;html=1;exitX=0.75;exitY=1;exitDx=0;exitDy=0;entryX=0.833;entryY=-0.017;entryDx=0;entryDy=0;entryPerimeter=0;" edge="1" parent="1" source="ffz6APYkUqv7V9TVB2FK-2" target="ffz6APYkUqv7V9TVB2FK-1">
          <mxGeometry relative="1" as="geometry">
            <Array as="points">
              <mxPoint x="-580" y="380" />
              <mxPoint x="-540" y="380" />
              <mxPoint x="-540" y="300" />
              <mxPoint x="-630" y="300" />
              <mxPoint x="-630" y="280" />
              <mxPoint x="-690" y="280" />
              <mxPoint x="-690" y="300" />
              <mxPoint x="-740" y="300" />
            </Array>
          </mxGeometry>
        </mxCell>
        <mxCell id="ffz6APYkUqv7V9TVB2FK-2" value="FooService" style="shape=process;whiteSpace=wrap;html=1;backgroundOutline=1;fillColor=#dae8fc;strokeColor=#6c8ebf;" vertex="1" parent="1">
          <mxGeometry x="-670" y="310" width="120" height="60" as="geometry" />
        </mxCell>
        <mxCell id="ffz6APYkUqv7V9TVB2FK-13" style="edgeStyle=orthogonalEdgeStyle;rounded=0;orthogonalLoop=1;jettySize=auto;html=1;exitX=0.25;exitY=1;exitDx=0;exitDy=0;entryX=0.25;entryY=0;entryDx=0;entryDy=0;" edge="1" parent="1" source="ffz6APYkUqv7V9TVB2FK-3" target="ffz6APYkUqv7V9TVB2FK-9">
          <mxGeometry relative="1" as="geometry" />
        </mxCell>
        <mxCell id="ffz6APYkUqv7V9TVB2FK-15" style="edgeStyle=orthogonalEdgeStyle;rounded=0;orthogonalLoop=1;jettySize=auto;html=1;exitX=0.5;exitY=1;exitDx=0;exitDy=0;entryX=0.25;entryY=0;entryDx=0;entryDy=0;" edge="1" parent="1" source="ffz6APYkUqv7V9TVB2FK-3" target="ffz6APYkUqv7V9TVB2FK-2">
          <mxGeometry relative="1" as="geometry">
            <Array as="points">
              <mxPoint x="-690" y="500" />
              <mxPoint x="-620" y="500" />
              <mxPoint x="-620" y="380" />
              <mxPoint x="-680" y="380" />
              <mxPoint x="-680" y="290" />
              <mxPoint x="-640" y="290" />
            </Array>
          </mxGeometry>
        </mxCell>
        <mxCell id="ffz6APYkUqv7V9TVB2FK-3" value="CrudService" style="shape=process;whiteSpace=wrap;html=1;backgroundOutline=1;fillColor=#dae8fc;strokeColor=#6c8ebf;" vertex="1" parent="1">
          <mxGeometry x="-750" y="420" width="120" height="60" as="geometry" />
        </mxCell>
        <mxCell id="ffz6APYkUqv7V9TVB2FK-23" style="edgeStyle=orthogonalEdgeStyle;rounded=0;orthogonalLoop=1;jettySize=auto;html=1;exitX=0.75;exitY=0;exitDx=0;exitDy=0;entryX=0.5;entryY=1;entryDx=0;entryDy=0;" edge="1" parent="1" source="ffz6APYkUqv7V9TVB2FK-4" target="ffz6APYkUqv7V9TVB2FK-5">
          <mxGeometry relative="1" as="geometry" />
        </mxCell>
        <mxCell id="ffz6APYkUqv7V9TVB2FK-4" value="RestClientService" style="shape=process;whiteSpace=wrap;html=1;backgroundOutline=1;fillColor=#dae8fc;strokeColor=#6c8ebf;" vertex="1" parent="1">
          <mxGeometry x="-495" y="440" width="140" height="60" as="geometry" />
        </mxCell>
        <mxCell id="ffz6APYkUqv7V9TVB2FK-19" style="edgeStyle=orthogonalEdgeStyle;rounded=0;orthogonalLoop=1;jettySize=auto;html=1;exitX=0.25;exitY=1;exitDx=0;exitDy=0;entryX=0.25;entryY=0;entryDx=0;entryDy=0;" edge="1" parent="1" source="ffz6APYkUqv7V9TVB2FK-5" target="ffz6APYkUqv7V9TVB2FK-4">
          <mxGeometry relative="1" as="geometry" />
        </mxCell>
        <mxCell id="ffz6APYkUqv7V9TVB2FK-24" style="edgeStyle=orthogonalEdgeStyle;rounded=0;orthogonalLoop=1;jettySize=auto;html=1;entryX=0.75;entryY=1;entryDx=0;entryDy=0;" edge="1" parent="1" target="-FT3mpPr_WbykKQzSYBq-3">
          <mxGeometry relative="1" as="geometry">
            <mxPoint x="-410" y="310" as="sourcePoint" />
            <Array as="points">
              <mxPoint x="-410" y="280" />
              <mxPoint x="-430" y="280" />
            </Array>
          </mxGeometry>
        </mxCell>
        <mxCell id="ffz6APYkUqv7V9TVB2FK-26" style="edgeStyle=orthogonalEdgeStyle;rounded=0;orthogonalLoop=1;jettySize=auto;html=1;exitX=0.75;exitY=1;exitDx=0;exitDy=0;entryX=0.75;entryY=0;entryDx=0;entryDy=0;" edge="1" parent="1" source="ffz6APYkUqv7V9TVB2FK-5" target="ffz6APYkUqv7V9TVB2FK-9">
          <mxGeometry relative="1" as="geometry">
            <Array as="points">
              <mxPoint x="-400" y="400" />
              <mxPoint x="-600" y="400" />
              <mxPoint x="-600" y="510" />
              <mxPoint x="-660" y="510" />
            </Array>
          </mxGeometry>
        </mxCell>
        <mxCell id="ffz6APYkUqv7V9TVB2FK-5" value="EnrichService" style="shape=process;whiteSpace=wrap;html=1;backgroundOutline=1;fillColor=#dae8fc;strokeColor=#6c8ebf;" vertex="1" parent="1">
          <mxGeometry x="-490" y="310" width="120" height="60" as="geometry" />
        </mxCell>
        <mxCell id="ffz6APYkUqv7V9TVB2FK-35" style="edgeStyle=orthogonalEdgeStyle;rounded=0;orthogonalLoop=1;jettySize=auto;html=1;exitX=0.5;exitY=1;exitDx=0;exitDy=0;entryX=0.25;entryY=0;entryDx=0;entryDy=0;" edge="1" parent="1" source="ffz6APYkUqv7V9TVB2FK-7" target="ffz6APYkUqv7V9TVB2FK-32">
          <mxGeometry relative="1" as="geometry" />
        </mxCell>
        <mxCell id="ffz6APYkUqv7V9TVB2FK-40" style="edgeStyle=orthogonalEdgeStyle;rounded=0;orthogonalLoop=1;jettySize=auto;html=1;exitX=0.75;exitY=0;exitDx=0;exitDy=0;entryX=0.75;entryY=1;entryDx=0;entryDy=0;" edge="1" parent="1" source="ffz6APYkUqv7V9TVB2FK-7" target="-FT3mpPr_WbykKQzSYBq-5">
          <mxGeometry relative="1" as="geometry" />
        </mxCell>
        <mxCell id="ffz6APYkUqv7V9TVB2FK-7" value="DetermineService" style="shape=process;whiteSpace=wrap;html=1;backgroundOutline=1;fillColor=#dae8fc;strokeColor=#6c8ebf;" vertex="1" parent="1">
          <mxGeometry x="-130" y="330" width="130" height="60" as="geometry" />
        </mxCell>
        <mxCell id="ffz6APYkUqv7V9TVB2FK-28" style="edgeStyle=orthogonalEdgeStyle;rounded=0;orthogonalLoop=1;jettySize=auto;html=1;exitX=0.75;exitY=0;exitDx=0;exitDy=0;entryX=0.75;entryY=1;entryDx=0;entryDy=0;" edge="1" parent="1" source="ffz6APYkUqv7V9TVB2FK-8" target="-FT3mpPr_WbykKQzSYBq-4">
          <mxGeometry relative="1" as="geometry" />
        </mxCell>
        <mxCell id="ffz6APYkUqv7V9TVB2FK-8" value="BarService" style="shape=process;whiteSpace=wrap;html=1;backgroundOutline=1;fillColor=#dae8fc;strokeColor=#6c8ebf;" vertex="1" parent="1">
          <mxGeometry x="-320" y="310" width="120" height="60" as="geometry" />
        </mxCell>
        <mxCell id="ffz6APYkUqv7V9TVB2FK-9" value="ObjectRepo" style="shape=process;whiteSpace=wrap;html=1;backgroundOutline=1;fillColor=#dae8fc;strokeColor=#6c8ebf;" vertex="1" parent="1">
          <mxGeometry x="-750" y="530" width="120" height="60" as="geometry" />
        </mxCell>
        <mxCell id="ffz6APYkUqv7V9TVB2FK-12" value="" style="shape=cylinder3;whiteSpace=wrap;html=1;boundedLbl=1;backgroundOutline=1;size=15;fillColor=#fff2cc;strokeColor=#d6b656;" vertex="1" parent="1">
          <mxGeometry x="-720" y="620" width="60" height="80" as="geometry" />
        </mxCell>
        <mxCell id="ffz6APYkUqv7V9TVB2FK-14" style="edgeStyle=orthogonalEdgeStyle;rounded=0;orthogonalLoop=1;jettySize=auto;html=1;exitX=0.5;exitY=1;exitDx=0;exitDy=0;entryX=0.5;entryY=0;entryDx=0;entryDy=0;entryPerimeter=0;" edge="1" parent="1" source="ffz6APYkUqv7V9TVB2FK-9" target="ffz6APYkUqv7V9TVB2FK-12">
          <mxGeometry relative="1" as="geometry" />
        </mxCell>
        <mxCell id="ffz6APYkUqv7V9TVB2FK-17" value="Application Logic" style="text;html=1;strokeColor=none;fillColor=none;align=left;verticalAlign=middle;whiteSpace=wrap;rounded=0;fontSize=17;fontStyle=1" vertex="1" parent="1">
          <mxGeometry x="-850" y="260" width="180" height="30" as="geometry" />
        </mxCell>
        <mxCell id="ffz6APYkUqv7V9TVB2FK-22" style="edgeStyle=orthogonalEdgeStyle;rounded=0;orthogonalLoop=1;jettySize=auto;html=1;exitX=0.625;exitY=0.2;exitDx=0;exitDy=0;exitPerimeter=0;entryX=0.75;entryY=1;entryDx=0;entryDy=0;" edge="1" parent="1" source="ffz6APYkUqv7V9TVB2FK-20" target="ffz6APYkUqv7V9TVB2FK-4">
          <mxGeometry relative="1" as="geometry" />
        </mxCell>
        <mxCell id="ffz6APYkUqv7V9TVB2FK-20" value="" style="ellipse;shape=cloud;whiteSpace=wrap;html=1;fillColor=#d5e8d4;strokeColor=#82b366;" vertex="1" parent="1">
          <mxGeometry x="-490" y="610" width="120" height="80" as="geometry" />
        </mxCell>
        <mxCell id="ffz6APYkUqv7V9TVB2FK-21" style="edgeStyle=orthogonalEdgeStyle;rounded=0;orthogonalLoop=1;jettySize=auto;html=1;exitX=0.25;exitY=1;exitDx=0;exitDy=0;entryX=0.25;entryY=0.25;entryDx=0;entryDy=0;entryPerimeter=0;" edge="1" parent="1" source="ffz6APYkUqv7V9TVB2FK-4" target="ffz6APYkUqv7V9TVB2FK-20">
          <mxGeometry relative="1" as="geometry" />
        </mxCell>
        <mxCell id="ffz6APYkUqv7V9TVB2FK-31" value="SeverityService" style="shape=process;whiteSpace=wrap;html=1;backgroundOutline=1;fillColor=#dae8fc;strokeColor=#6c8ebf;" vertex="1" parent="1">
          <mxGeometry x="-260" y="440" width="130" height="60" as="geometry" />
        </mxCell>
        <mxCell id="ffz6APYkUqv7V9TVB2FK-36" style="edgeStyle=orthogonalEdgeStyle;rounded=0;orthogonalLoop=1;jettySize=auto;html=1;exitX=0.25;exitY=1;exitDx=0;exitDy=0;" edge="1" parent="1" source="ffz6APYkUqv7V9TVB2FK-32" target="ffz6APYkUqv7V9TVB2FK-37">
          <mxGeometry relative="1" as="geometry">
            <mxPoint x="-57" y="690" as="targetPoint" />
          </mxGeometry>
        </mxCell>
        <mxCell id="ffz6APYkUqv7V9TVB2FK-39" style="edgeStyle=orthogonalEdgeStyle;rounded=0;orthogonalLoop=1;jettySize=auto;html=1;exitX=0.75;exitY=0;exitDx=0;exitDy=0;entryX=0.75;entryY=1;entryDx=0;entryDy=0;" edge="1" parent="1" source="ffz6APYkUqv7V9TVB2FK-32" target="ffz6APYkUqv7V9TVB2FK-7">
          <mxGeometry relative="1" as="geometry" />
        </mxCell>
        <mxCell id="ffz6APYkUqv7V9TVB2FK-32" value="ManualTaskService" style="shape=process;whiteSpace=wrap;html=1;backgroundOutline=1;fillColor=#dae8fc;strokeColor=#6c8ebf;" vertex="1" parent="1">
          <mxGeometry x="-90" y="440" width="130" height="60" as="geometry" />
        </mxCell>
        <mxCell id="ffz6APYkUqv7V9TVB2FK-33" style="edgeStyle=orthogonalEdgeStyle;rounded=0;orthogonalLoop=1;jettySize=auto;html=1;exitX=0.25;exitY=1;exitDx=0;exitDy=0;entryX=0.162;entryY=0.017;entryDx=0;entryDy=0;entryPerimeter=0;" edge="1" parent="1" source="ffz6APYkUqv7V9TVB2FK-7" target="ffz6APYkUqv7V9TVB2FK-31">
          <mxGeometry relative="1" as="geometry" />
        </mxCell>
        <mxCell id="ffz6APYkUqv7V9TVB2FK-34" style="edgeStyle=orthogonalEdgeStyle;rounded=0;orthogonalLoop=1;jettySize=auto;html=1;exitX=0.75;exitY=1;exitDx=0;exitDy=0;entryX=0.338;entryY=1.05;entryDx=0;entryDy=0;entryPerimeter=0;" edge="1" parent="1" source="ffz6APYkUqv7V9TVB2FK-31" target="ffz6APYkUqv7V9TVB2FK-7">
          <mxGeometry relative="1" as="geometry">
            <Array as="points">
              <mxPoint x="-162" y="520" />
              <mxPoint x="-120" y="520" />
              <mxPoint x="-120" y="430" />
              <mxPoint x="-86" y="430" />
            </Array>
          </mxGeometry>
        </mxCell>
        <mxCell id="ffz6APYkUqv7V9TVB2FK-38" style="edgeStyle=orthogonalEdgeStyle;rounded=0;orthogonalLoop=1;jettySize=auto;html=1;exitX=0.75;exitY=0;exitDx=0;exitDy=0;entryX=0.75;entryY=1;entryDx=0;entryDy=0;" edge="1" parent="1" source="ffz6APYkUqv7V9TVB2FK-37" target="ffz6APYkUqv7V9TVB2FK-32">
          <mxGeometry relative="1" as="geometry" />
        </mxCell>
        <mxCell id="ffz6APYkUqv7V9TVB2FK-37" value="&lt;b&gt;&lt;font style=&quot;font-size: 14px;&quot;&gt;Start Childflow&lt;/font&gt;&lt;/b&gt;" style="rounded=1;whiteSpace=wrap;html=1;fillColor=#fff2cc;strokeColor=#d6b656;" vertex="1" parent="1">
          <mxGeometry x="-110" y="620" width="120" height="60" as="geometry" />
        </mxCell>
        <mxCell id="ffz6APYkUqv7V9TVB2FK-42" value="Application" style="text;html=1;strokeColor=none;fillColor=none;align=left;verticalAlign=middle;whiteSpace=wrap;rounded=0;fontSize=17;fontStyle=1" vertex="1" parent="1">
          <mxGeometry x="-860" y="40" width="180" height="30" as="geometry" />
        </mxCell>
        <mxCell id="ffz6APYkUqv7V9TVB2FK-43" value="WorkFlow" style="text;html=1;strokeColor=none;fillColor=none;align=left;verticalAlign=middle;whiteSpace=wrap;rounded=0;fontSize=17;fontStyle=1" vertex="1" parent="1">
          <mxGeometry x="-787" y="130" width="180" height="30" as="geometry" />
        </mxCell>
        <mxCell id="ffz6APYkUqv7V9TVB2FK-45" value="&lt;b&gt;PUT&lt;/b&gt;: Started" style="text;html=1;strokeColor=none;fillColor=none;align=left;verticalAlign=middle;whiteSpace=wrap;rounded=0;fontSize=14;fontStyle=0" vertex="1" parent="1">
          <mxGeometry x="-750" y="-300" width="160" height="30" as="geometry" />
        </mxCell>
        <mxCell id="ffz6APYkUqv7V9TVB2FK-46" value="&lt;b&gt;PUT&lt;/b&gt;: Started" style="text;html=1;strokeColor=none;fillColor=none;align=left;verticalAlign=middle;whiteSpace=wrap;rounded=0;fontSize=14;fontStyle=0" vertex="1" parent="1">
          <mxGeometry x="-722" y="-46" width="160" height="30" as="geometry" />
        </mxCell>
        <mxCell id="ffz6APYkUqv7V9TVB2FK-48" value="&lt;b&gt;POLL&lt;/b&gt;: Asking for work" style="text;html=1;strokeColor=none;fillColor=none;align=left;verticalAlign=middle;whiteSpace=wrap;rounded=0;fontSize=14;fontStyle=0" vertex="1" parent="1">
          <mxGeometry x="-751" y="-211" width="160" height="30" as="geometry" />
        </mxCell>
        <mxCell id="ffz6APYkUqv7V9TVB2FK-49" value="&lt;b&gt;PUT&lt;/b&gt;: Completed" style="text;html=1;strokeColor=none;fillColor=none;align=left;verticalAlign=middle;whiteSpace=wrap;rounded=0;fontSize=14;fontStyle=0" vertex="1" parent="1">
          <mxGeometry x="-112" y="-26" width="160" height="30" as="geometry" />
        </mxCell>
        <mxCell id="ffz6APYkUqv7V9TVB2FK-50" value="&lt;b&gt;PUT&lt;/b&gt;: Completed" style="text;html=1;strokeColor=none;fillColor=none;align=left;verticalAlign=middle;whiteSpace=wrap;rounded=0;fontSize=14;fontStyle=0" vertex="1" parent="1">
          <mxGeometry x="-145" y="-270" width="160" height="30" as="geometry" />
        </mxCell>
      </root>
    </mxGraphModel>
  </diagram>
</mxfile>
